<svg width="24" height="24" viewBox="0 0 24 24" fill="none" xmlns="http://www.w3.org/2000/svg">
<path d="M15 16V14C15.45 13.777 16.737 12.245 16.872 11.048C17.226 11.021 17.782 10.696 17.946 9.41298C18.034 8.72398 17.684 8.33698 17.472 8.21498C17.472 8.21498 18 7.21198 18 6.00098C18 3.57298 17.047 1.50098 15 1.50098C15 1.50098 14.289 0.000976562 12 0.000976562C7.758 0.000976562 6 2.72198 6 6.00098C6 7.10498 6.528 8.21498 6.528 8.21498C6.316 8.33698 5.966 8.72498 6.054 9.41298C6.218 10.696 6.774 11.021 7.128 11.048C7.263 12.245 8.55 13.777 9 14V16C8 19 0 17 0 24H24C24 17 16 19 15 16Z" fill="#76767A"/>
</svg>
