<svg width="24" height="28" viewBox="0 0 24 28" fill="none" xmlns="http://www.w3.org/2000/svg">
<path d="M22.0588 28H1.94118C0.869095 28 0 27.1046 0 26V2C0 0.895431 0.869095 0 1.94118 0H15L24 9.27273V26C24 27.1046 23.1309 28 22.0588 28Z" fill="#FF7981"/>
<path d="M5.49056 19.7628C5.40226 19.7628 5.32791 19.7317 5.2675 19.6695C5.20709 19.6072 5.17688 19.5306 5.17688 19.4396V15.0444C5.17688 14.9534 5.20709 14.8768 5.2675 14.8145C5.32791 14.7475 5.40226 14.714 5.49056 14.714H7.07985C7.52132 14.714 7.88147 14.7906 8.16029 14.9438C8.43912 15.097 8.63894 15.2933 8.75976 15.5327C8.88059 15.7721 8.941 16.0307 8.941 16.3084C8.941 16.5861 8.88059 16.8446 8.75976 17.084C8.63894 17.3234 8.43912 17.5197 8.16029 17.6729C7.88147 17.8261 7.52132 17.9027 7.07985 17.9027H5.8112V19.4396C5.8112 19.5306 5.77867 19.6072 5.71362 19.6695C5.6532 19.7317 5.57885 19.7628 5.49056 19.7628ZM7.01712 17.2851C7.49112 17.2851 7.82338 17.1917 8.01391 17.005C8.20909 16.8183 8.30667 16.5861 8.30667 16.3084C8.30667 16.0307 8.20909 15.7985 8.01391 15.6117C7.82338 15.425 7.49112 15.3316 7.01712 15.3316H5.8112V17.2851H7.01712Z" fill="white"/>
<path d="M10.6619 19.7269C10.5736 19.7269 10.4992 19.6958 10.4388 19.6335C10.3784 19.5713 10.3482 19.4947 10.3482 19.4037V15.0444C10.3482 14.9534 10.3784 14.8768 10.4388 14.8145C10.4992 14.7475 10.5736 14.714 10.6619 14.714H12.0629C12.5927 14.714 13.0412 14.8361 13.4083 15.0803C13.78 15.3197 14.0589 15.6309 14.2447 16.0139C14.4306 16.3969 14.5236 16.7991 14.5236 17.2205C14.5236 17.6418 14.4306 18.044 14.2447 18.427C14.0589 18.81 13.78 19.1236 13.4083 19.3678C13.0412 19.6072 12.5927 19.7269 12.0629 19.7269H10.6619ZM11.9863 19.1165C12.3673 19.1165 12.7019 19.0375 12.99 18.8795C13.2782 18.7167 13.5012 18.494 13.6592 18.2115C13.8172 17.9243 13.8962 17.5939 13.8962 17.2205C13.8962 16.847 13.8172 16.519 13.6592 16.2365C13.5012 15.9493 13.2782 15.7266 12.99 15.5686C12.7019 15.4059 12.3673 15.3245 11.9863 15.3245H10.9825V19.1165H11.9863Z" fill="white"/>
<path d="M16.3846 19.7628C16.2963 19.7628 16.2219 19.7317 16.1615 19.6695C16.1011 19.6072 16.0709 19.5306 16.0709 19.4396V15.0444C16.0709 14.9534 16.1011 14.8768 16.1615 14.8145C16.2219 14.7475 16.2963 14.714 16.3846 14.714H19.0961C19.1798 14.714 19.2495 14.7451 19.3052 14.8074C19.3656 14.8648 19.3958 14.9366 19.3958 15.0228C19.3958 15.109 19.3656 15.1808 19.3052 15.2383C19.2495 15.2957 19.1798 15.3245 19.0961 15.3245H16.7052V16.9116H18.8521C18.9358 16.9116 19.0055 16.9428 19.0613 17.005C19.1217 17.0625 19.1519 17.1343 19.1519 17.2205C19.1519 17.3066 19.1217 17.3785 19.0613 17.4359C19.0055 17.4934 18.9358 17.5221 18.8521 17.5221H16.7052V19.4396C16.7052 19.5306 16.6727 19.6072 16.6076 19.6695C16.5472 19.7317 16.4728 19.7628 16.3846 19.7628Z" fill="white"/>
<path fill-rule="evenodd" clip-rule="evenodd" d="M7.89313 16.8725L7.89391 16.8718C8.05264 16.7199 8.13028 16.5362 8.13028 16.3084C8.13028 16.0805 8.05264 15.8968 7.89391 15.745L7.89313 15.7442L7.89236 15.7435C7.75253 15.6064 7.47884 15.5135 7.01719 15.5135H5.98775V17.1033H7.01719C7.47884 17.1033 7.75253 17.0103 7.89236 16.8733L7.89313 16.8725ZM5.81128 17.2851V15.3316H7.01719C7.49119 15.3316 7.82346 15.425 8.01399 15.6117C8.20916 15.7985 8.30675 16.0307 8.30675 16.3084C8.30675 16.5861 8.20916 16.8183 8.01399 17.005C7.82346 17.1917 7.49119 17.2851 7.01719 17.2851H5.81128ZM13.5032 19.5211L13.5027 19.5215C13.1017 19.7829 12.6188 19.9087 12.063 19.9087H10.6619C10.5286 19.9087 10.4088 19.8597 10.3141 19.7621C10.2194 19.6645 10.1718 19.5411 10.1718 19.4037V15.0444C10.1718 14.9081 10.2186 14.7856 10.3118 14.6884C10.4051 14.5861 10.5254 14.5322 10.6619 14.5322H12.063C12.619 14.5322 13.102 14.6604 13.503 14.9268C13.9002 15.1828 14.2016 15.5184 14.4027 15.9326C14.6006 16.3404 14.7001 16.7704 14.7001 17.2205C14.7001 17.6705 14.6006 18.1005 14.4027 18.5083C14.2016 18.9226 13.9002 19.2604 13.5032 19.5211ZM13.4084 15.0803C13.0412 14.8361 12.5928 14.714 12.063 14.714H10.6619C10.5736 14.714 10.4993 14.7475 10.4389 14.8145C10.3785 14.8768 10.3483 14.9534 10.3483 15.0444V19.4037C10.3483 19.4947 10.3785 19.5713 10.4389 19.6335C10.4993 19.6958 10.5736 19.7269 10.6619 19.7269H12.063C12.5928 19.7269 13.0412 19.6072 13.4084 19.3678C13.7801 19.1236 14.0589 18.81 14.2448 18.427C14.4307 18.044 14.5236 17.6418 14.5236 17.2205C14.5236 16.7991 14.4307 16.3969 14.2448 16.0139C14.0589 15.6309 13.7801 15.3197 13.4084 15.0803ZM13.5061 16.3268L13.5058 16.3262C13.3646 16.0695 13.1663 15.8712 12.9072 15.7291L12.9062 15.7286L12.9053 15.7281C12.647 15.5822 12.3425 15.5063 11.9864 15.5063H11.1591V18.9346H11.9864C12.3429 18.9346 12.6478 18.861 12.9062 18.7195C13.1665 18.5722 13.365 18.3732 13.5061 18.1214C13.6469 17.865 13.7198 17.5664 13.7198 17.2205C13.7198 16.8742 13.6468 16.5784 13.5064 16.3273L13.5061 16.3268ZM13.6593 18.2115C13.5013 18.494 13.2782 18.7167 12.9901 18.8795C12.702 19.0375 12.3674 19.1165 11.9864 19.1165H10.9826V15.3245H11.9864C12.3674 15.3245 12.702 15.4059 12.9901 15.5686C13.2782 15.7266 13.5013 15.9493 13.6593 16.2365C13.8173 16.519 13.8963 16.847 13.8963 17.2205C13.8963 17.5939 13.8173 17.9243 13.6593 18.2115ZM5.49064 19.9446C5.35729 19.9446 5.23752 19.8956 5.14279 19.798C5.04807 19.7004 5.00049 19.577 5.00049 19.4396V15.0444C5.00049 14.9081 5.0473 14.7856 5.14048 14.6884C5.23377 14.5861 5.35405 14.5322 5.49064 14.5322H7.07993C7.5395 14.5322 7.93091 14.6117 8.24342 14.7834C8.54708 14.9503 8.776 15.1706 8.91641 15.4488C9.0507 15.7149 9.11755 16.0024 9.11755 16.3084C9.11755 16.6144 9.0507 16.9018 8.91641 17.1679C8.776 17.4461 8.54708 17.6665 8.24342 17.8333C7.93091 18.0051 7.5395 18.0845 7.07993 18.0845H5.98775V19.4396C5.98775 19.5804 5.9354 19.7043 5.83616 19.8004C5.7418 19.8964 5.62289 19.9446 5.49064 19.9446ZM5.71369 19.6695C5.65328 19.7317 5.57893 19.7628 5.49064 19.7628C5.40234 19.7628 5.32799 19.7317 5.26758 19.6695C5.20716 19.6072 5.17696 19.5306 5.17696 19.4396V15.0444C5.17696 14.9534 5.20716 14.8768 5.26758 14.8145C5.32799 14.7475 5.40234 14.714 5.49064 14.714H7.07993C7.5214 14.714 7.88155 14.7906 8.16037 14.9438C8.43919 15.097 8.63902 15.2933 8.75984 15.5327C8.88066 15.7721 8.94108 16.0307 8.94108 16.3084C8.94108 16.5861 8.88066 16.8446 8.75984 17.084C8.63902 17.3234 8.43919 17.5197 8.16037 17.6729C7.88155 17.8261 7.5214 17.9027 7.07993 17.9027H5.81128V19.4396C5.81128 19.5306 5.77875 19.6072 5.71369 19.6695ZM16.3846 19.9446C16.2513 19.9446 16.1315 19.8956 16.0368 19.798C15.9421 19.7004 15.8945 19.577 15.8945 19.4396V15.0444C15.8945 14.9081 15.9413 14.7856 16.0345 14.6884C16.1278 14.5861 16.248 14.5322 16.3846 14.5322H19.0962C19.2258 14.5322 19.341 14.582 19.4302 14.6787C19.5241 14.7706 19.5724 14.8893 19.5724 15.0228C19.5724 15.1575 19.5232 15.2772 19.4276 15.3694C19.3369 15.4615 19.2223 15.5063 19.0962 15.5063H16.8817V16.7298H18.8522C18.9818 16.7298 19.097 16.7796 19.1862 16.8764C19.2801 16.9683 19.3284 17.087 19.3284 17.2205C19.3284 17.3552 19.2792 17.4748 19.1836 17.5671C19.093 17.6591 18.9783 17.7039 18.8522 17.7039H16.8817V19.4396C16.8817 19.5804 16.8294 19.7043 16.7302 19.8004C16.6358 19.8964 16.5169 19.9446 16.3846 19.9446ZM16.6077 19.6695C16.6727 19.6072 16.7053 19.5306 16.7053 19.4396V17.5221H18.8522C18.9359 17.5221 19.0056 17.4934 19.0613 17.4359C19.1217 17.3785 19.152 17.3066 19.152 17.2205C19.152 17.1343 19.1217 17.0625 19.0613 17.005C19.0056 16.9428 18.9359 16.9116 18.8522 16.9116H16.7053V15.3245H19.0962C19.1798 15.3245 19.2495 15.2957 19.3053 15.2383C19.3657 15.1808 19.3959 15.109 19.3959 15.0228C19.3959 14.9366 19.3657 14.8648 19.3053 14.8074C19.2495 14.7451 19.1798 14.714 19.0962 14.714H16.3846C16.2963 14.714 16.222 14.7475 16.1616 14.8145C16.1012 14.8768 16.071 14.9534 16.071 15.0444V19.4396C16.071 19.5306 16.1012 19.6072 16.1616 19.6695C16.222 19.7317 16.2963 19.7628 16.3846 19.7628C16.4729 19.7628 16.5473 19.7317 16.6077 19.6695Z" fill="white"/>
<g opacity="0.7" filter="url(#filter0_d_64_7)">
<path d="M24 9.27273H16.9412C15.8691 9.27273 15 8.3773 15 7.27273V0L24 9.27273Z" fill="#D03954"/>
</g>
<defs>
<filter id="filter0_d_64_7" x="-8" y="-24" width="59" height="59.2727" filterUnits="userSpaceOnUse" color-interpolation-filters="sRGB">
<feFlood flood-opacity="0" result="BackgroundImageFix"/>
<feColorMatrix in="SourceAlpha" type="matrix" values="0 0 0 0 0 0 0 0 0 0 0 0 0 0 0 0 0 0 127 0" result="hardAlpha"/>
<feOffset dx="2" dy="1"/>
<feGaussianBlur stdDeviation="12.5"/>
<feColorMatrix type="matrix" values="0 0 0 0 0 0 0 0 0 0 0 0 0 0 0 0 0 0 0.33 0"/>
<feBlend mode="normal" in2="BackgroundImageFix" result="effect1_dropShadow_64_7"/>
<feBlend mode="normal" in="SourceGraphic" in2="effect1_dropShadow_64_7" result="shape"/>
</filter>
</defs>
</svg>
