<svg width="26" height="24" viewBox="0 0 26 24" fill="none" xmlns="http://www.w3.org/2000/svg">
<path fill-rule="evenodd" clip-rule="evenodd" d="M17.6411 4.95318C16.153 3.94942 14.3852 3.44254 12.5913 3.50518C10.7974 3.56783 9.06933 4.19678 7.65484 5.30191C6.24034 6.40704 5.21201 7.9316 4.71723 9.65708C4.60306 10.0553 4.18773 10.2855 3.78956 10.1713C3.39139 10.0571 3.16117 9.64179 3.27534 9.24363C3.85743 7.21364 5.06723 5.42004 6.73134 4.11989C8.39546 2.81974 10.4285 2.07979 12.539 2.00609C14.6495 1.93239 16.7291 2.52873 18.4799 3.70963C20.2306 4.89053 21.5626 6.59537 22.2849 8.5798C22.4266 8.96904 22.2259 9.39942 21.8366 9.54109C21.4474 9.68276 21.017 9.48207 20.8753 9.09283C20.2614 7.40606 19.1292 5.95695 17.6411 4.95318Z" fill="#004FFF"/>
<path fill-rule="evenodd" clip-rule="evenodd" d="M8.3871 19.2108C9.78245 20.0817 11.4005 20.529 13.045 20.4985C14.6896 20.4681 16.2899 19.9611 17.652 19.0391C19.0142 18.1172 20.0795 16.8198 20.719 15.3044C20.88 14.9227 21.3199 14.7439 21.7015 14.9049C22.0832 15.066 22.262 15.5059 22.101 15.8875C21.3487 17.6704 20.0953 19.1967 18.4928 20.2813C16.8903 21.366 15.0076 21.9624 13.0728 21.9983C11.1381 22.0341 9.23449 21.5079 7.5929 20.4833C5.95132 19.4588 4.64225 17.98 3.82446 16.2262C3.6494 15.8508 3.81182 15.4045 4.18722 15.2295C4.56263 15.0544 5.00886 15.2168 5.18392 15.5923C5.87905 17.083 6.99175 18.34 8.3871 19.2108Z" fill="#004FFF"/>
<path d="M6.71338 14.9341L4.14643 15.3147L2.91078 17.5967" stroke="#004FFF" stroke-width="2" stroke-linecap="round" stroke-linejoin="round"/>
<path d="M19.1343 9.72998L21.7012 9.34933L22.9369 7.06737" stroke="#004FFF" stroke-width="2" stroke-linecap="round" stroke-linejoin="round"/>
</svg>
