<svg width="160" height="160" viewBox="0 0 160 160" fill="none" xmlns="http://www.w3.org/2000/svg">
<path d="M156.156 98.4204C166.304 56.3559 140.43 14.0299 98.365 3.88263C56.3005 -6.2646 13.9745 19.6095 3.8273 61.674C-6.31994 103.738 19.5541 146.064 61.6186 156.212C103.683 166.359 146.009 140.485 156.156 98.4204Z" fill="white"/>
<path d="M80 160C35.9588 160 0 124.206 0 80C0 35.9588 35.9588 0 80 0C124.206 0 160 35.9588 160 80C160 124.206 124.206 160 80 160ZM80 3.29897C37.7732 3.29897 3.29897 37.7732 3.29897 80C3.29897 122.227 37.7732 156.701 80 156.701C122.392 156.701 156.701 122.392 156.701 80C156.701 37.6082 122.392 3.29897 80 3.29897Z" fill="#2BB76B"/>
<path d="M117.227 38.0004L63.2887 91.9386L41.8454 70.4953L27 85.5056L63.2887 121.629L132.072 52.8458L117.227 38.0004Z" fill="#2BB76B"/>
</svg>
