<svg width="32" height="32" viewBox="0 0 32 32" fill="none" xmlns="http://www.w3.org/2000/svg">
<rect width="32" height="32" rx="4" fill="#004FFF"/>
<path fill-rule="evenodd" clip-rule="evenodd" d="M18.3781 6.36045L8.12664 16.6119L7.59631 16.0815C8.12664 16.6119 8.12729 16.6112 8.1275 16.611L8.12142 16.6172C8.11552 16.6233 8.10562 16.6336 8.09212 16.648C8.06508 16.6767 8.02371 16.7217 7.97117 16.7816C7.86595 16.9017 7.71692 17.0809 7.54925 17.3095C7.21165 17.7699 6.81025 18.4148 6.5323 19.1692C6.25491 19.9222 6.10848 20.7615 6.24856 21.63C6.38712 22.4891 6.81438 23.4313 7.77308 24.39C8.73179 25.3487 9.67403 25.776 10.5331 25.9146C11.4016 26.0547 12.241 25.9082 12.9939 25.6308C13.7483 25.3529 14.3933 24.9515 14.8536 24.6139C15.0823 24.4462 15.2614 24.2972 15.3815 24.192C15.4415 24.1394 15.4864 24.098 15.5152 24.071C15.5295 24.0575 15.5398 24.0476 15.5459 24.0417L15.5517 24.0361L25.4508 14.137C25.7436 13.8441 26.2185 13.8441 26.5114 14.137C26.8043 14.4299 26.8043 14.9048 26.5114 15.1977L16.6119 25.0972L16.0816 24.5668C16.6119 25.0972 16.6122 25.0969 16.6119 25.0972L16.6091 25.0999L16.6047 25.1043L16.5907 25.118C16.5791 25.1293 16.563 25.1447 16.5427 25.1638C16.5021 25.202 16.4441 25.2552 16.3701 25.3201C16.2223 25.4497 16.0092 25.6266 15.7407 25.8235C15.2067 26.2151 14.4374 26.6976 13.5124 27.0383C12.586 27.3797 11.4808 27.5868 10.2943 27.3954C9.09831 27.2025 7.87504 26.6133 6.71242 25.4507C5.54981 24.2881 4.9606 23.0648 4.7677 21.8689C4.57633 20.6824 4.78345 19.5772 5.12478 18.6507C5.46555 17.7257 5.94803 16.9565 6.33964 16.4225C6.53657 16.1539 6.71348 15.9409 6.84303 15.793C6.90789 15.719 6.96111 15.6611 6.99934 15.6204C7.01846 15.6001 7.03385 15.5841 7.04509 15.5725L7.05879 15.5585L7.06322 15.554L7.06481 15.5524C7.06508 15.5521 7.06598 15.5512 7.59631 16.0815L7.06598 15.5512L17.319 5.29816L17.8494 5.82849C17.319 5.29816 17.3187 5.29844 17.319 5.29816L17.3202 5.29699L17.3216 5.29556L17.3253 5.29193L17.3358 5.28165C17.3443 5.27349 17.3555 5.26276 17.3694 5.24971C17.3973 5.22364 17.4361 5.18825 17.4852 5.14571C17.5832 5.06081 17.7232 4.94645 17.8996 4.82044C18.2494 4.57053 18.7584 4.26351 19.38 4.05632C20.0047 3.84808 20.7579 3.73616 21.5762 3.89981C22.3999 4.06457 23.2366 4.49825 24.0365 5.29816C24.8364 6.09807 25.2701 6.93475 25.4349 7.75853C25.5985 8.57677 25.4866 9.33005 25.2784 9.95475C25.0712 10.5763 24.7642 11.0853 24.5143 11.4351C24.3883 11.6115 24.2739 11.7515 24.189 11.8495C24.1464 11.8986 24.1111 11.9374 24.085 11.9653C24.0719 11.9792 24.0612 11.9904 24.0531 11.9989L24.0428 12.0094L24.0391 12.0131L24.0377 12.0145C24.0374 12.0148 24.0365 12.0157 23.5062 11.4853L24.0365 12.0157L14.137 21.9152L13.6067 21.3848C14.137 21.9152 14.1373 21.9149 14.137 21.9152L14.1347 21.9175L14.1318 21.9204L14.1243 21.9277L14.1029 21.9481C14.0857 21.9641 14.0627 21.985 14.0344 22.0096C13.9778 22.0586 13.8986 22.1233 13.7996 22.194C13.6044 22.3334 13.3164 22.5079 12.96 22.6267C12.6005 22.7465 12.1566 22.8143 11.6698 22.7169C11.1774 22.6184 10.6943 22.3615 10.248 21.9152C9.8016 21.4688 9.54469 20.9857 9.44623 20.4934C9.34887 20.0066 9.4166 19.5627 9.53645 19.2031C9.65525 18.8467 9.82968 18.5588 9.96911 18.3636C10.0399 18.2645 10.1045 18.1853 10.1535 18.1287C10.1781 18.1004 10.199 18.0774 10.215 18.0603L10.2355 18.0388L10.2427 18.0313L10.2456 18.0284L10.2469 18.0272C10.2471 18.0269 10.248 18.0261 10.7783 18.5564L10.248 18.0261L19.4403 8.83369C19.7332 8.5408 20.2081 8.5408 20.501 8.83369C20.7939 9.12659 20.7939 9.60146 20.501 9.89435L11.3121 19.0833C11.3116 19.0837 11.3111 19.0843 11.3105 19.085C11.3065 19.0892 11.2984 19.0981 11.287 19.1111C11.2642 19.1375 11.2294 19.1798 11.1897 19.2354C11.1082 19.3496 11.0174 19.5036 10.9595 19.6775C10.9025 19.8483 10.8819 20.0231 10.9171 20.1992C10.9512 20.3698 11.0479 20.5938 11.3086 20.8545C11.5694 21.1153 11.7933 21.2119 11.9639 21.246C12.1401 21.2813 12.3149 21.2606 12.4857 21.2037C12.6596 21.1457 12.8136 21.055 12.9277 20.9734C12.9833 20.9337 13.0257 20.8989 13.052 20.8761C13.0651 20.8648 13.0739 20.8566 13.0781 20.8527L13.0774 20.8535L13.0798 20.8511C13.0806 20.8504 13.081 20.85 13.081 20.85L13.0798 20.8511L22.9742 10.9566C22.9742 10.9567 22.9739 10.957 22.9742 10.9566L22.975 10.9559L22.9896 10.9405C23.0036 10.9256 23.0262 10.9009 23.0555 10.8671C23.1142 10.7993 23.1987 10.6962 23.2937 10.5633C23.4857 10.2944 23.709 9.91948 23.8554 9.48041C24.0007 9.04445 24.0655 8.56029 23.964 8.0527C23.8636 7.55065 23.5902 6.97313 22.9759 6.35882C22.3616 5.74451 21.784 5.47109 21.282 5.37068C20.7744 5.26917 20.2903 5.33402 19.8543 5.47934C19.4152 5.6257 19.0403 5.84901 18.7714 6.04104C18.6385 6.13601 18.5354 6.22052 18.4676 6.27925C18.4338 6.30852 18.4091 6.33114 18.3942 6.34512L18.3793 6.35928C18.3787 6.35978 18.3783 6.36017 18.3781 6.36045Z" fill="white"/>
</svg>
